Gait_medial_04_analogdata.mot
version=1
nRows=27
nColumns=19
inDegrees=yes
endheader
time	1_ground_force_vx	1_ground_force_vy	1_ground_force_vz	1_ground_force_px	1_ground_force_py	1_ground_force_pz	1_ground_torque_x	1_ground_torque_y	1_ground_torque_z	2_ground_force_vx	2_ground_force_vy	2_ground_force_vz	2_ground_force_px	2_ground_force_py	2_ground_force_pz	2_ground_torque_x	2_ground_torque_y	2_ground_torque_z
0.435000	-25.004068	496.372833	-14.983418	-0.129453	0.000000	-0.256943	-0.106819	2.120543	-0.064010	0.000000	0.000000	-0.000000	-0.200000	0.000000	0.302000	0.000000	0.000000	-0.000000
0.436000	-26.073099	497.072662	-13.479442	-0.128536	0.000000	-0.256829	-0.111858	2.132527	-0.057829	0.000000	0.000000	-0.000000	-0.200000	0.000000	0.302000	0.000000	0.000000	-0.000000
0.437000	-26.340355	495.323059	-14.187196	-0.127970	0.000000	-0.256239	-0.124639	2.343808	-0.067132	0.000000	0.000000	-0.000000	-0.200000	0.000000	0.302000	0.000000	0.000000	-0.000000
0.438000	-26.963957	495.323059	-12.329342	-0.129245	0.000000	-0.256237	-0.124000	2.277860	-0.056699	0.000000	0.000000	-0.000000	-0.200000	0.000000	0.302000	0.000000	0.000000	-0.000000
0.439000	-25.894926	489.374390	-12.417812	-0.127421	0.000000	-0.255960	-0.110976	2.097280	-0.053218	0.000000	0.000000	-0.000000	-0.200000	0.000000	0.302000	0.000000	0.000000	-0.000000
0.440000	-25.449497	484.825378	-10.736896	-0.126823	0.000000	-0.254709	-0.117779	2.243756	-0.049690	0.000000	0.000000	-0.000000	-0.200000	0.000000	0.302000	0.000000	0.000000	-0.000000
0.441000	-24.647726	496.022919	-10.648427	-0.128254	0.000000	-0.254059	-0.114349	2.301214	-0.049402	0.000000	0.000000	-0.000000	-0.200000	0.000000	0.302000	0.000000	0.000000	-0.000000
0.442000	-25.538584	497.422607	-11.798527	-0.128081	0.000000	-0.254559	-0.115253	2.244810	-0.053245	0.000000	0.000000	-0.000000	-0.200000	0.000000	0.302000	0.000000	0.000000	-0.000000
0.443000	-25.538584	495.323059	-11.356180	-0.127929	0.000000	-0.254735	-0.114172	2.214369	-0.050768	0.000000	0.000000	-0.000000	-0.200000	0.000000	0.302000	0.000000	0.000000	-0.000000
0.444000	-25.805842	493.573456	-11.621588	-0.127308	0.000000	-0.253539	-0.107855	2.062878	-0.048572	0.000000	0.000000	-0.000000	-0.200000	0.000000	0.302000	0.000000	0.000000	-0.000000
0.445000	-25.894926	499.172211	-10.648427	-0.128111	0.000000	-0.254017	-0.132017	2.544875	-0.054288	0.000000	0.000000	-0.000000	-0.200000	0.000000	0.302000	0.000000	0.000000	-0.000000
0.446000	-25.538584	494.973145	-11.267712	-0.129345	0.000000	-0.253059	-0.126287	2.447616	-0.055718	0.000000	0.000000	-0.000000	-0.200000	0.000000	0.302000	0.000000	0.000000	-0.000000
0.447000	-26.162184	496.722748	-10.029143	-0.128280	0.000000	-0.250740	-0.131795	2.502299	-0.050523	0.000000	0.000000	-0.000000	-0.200000	0.000000	0.302000	0.000000	0.000000	-0.000000
0.448000	-25.538584	498.472382	-10.825365	-0.128681	0.000000	-0.251525	-0.115244	2.249371	-0.048850	0.000000	0.000000	-0.000000	-0.200000	0.000000	0.302000	0.000000	0.000000	-0.000000
0.449000	-25.716755	501.971588	-10.029142	-0.128750	0.000000	-0.251312	-0.114122	2.227567	-0.044506	0.000000	0.000000	-0.000000	-0.200000	0.000000	0.302000	0.000000	0.000000	-0.000000
0.450000	-25.716755	503.721191	-10.294550	-0.128564	0.000000	-0.250559	-0.108882	2.132701	-0.043586	0.000000	0.000000	-0.000000	-0.200000	0.000000	0.302000	0.000000	0.000000	-0.000000
0.451000	-25.716755	503.721191	-10.559958	-0.127771	0.000000	-0.251545	-0.100471	1.967948	-0.041256	0.000000	0.000000	-0.000000	-0.200000	0.000000	0.302000	0.000000	0.000000	-0.000000
0.452000	-25.538584	500.921814	-10.029142	-0.126201	0.000000	-0.252104	-0.103173	2.023669	-0.040517	0.000000	0.000000	-0.000000	-0.200000	0.000000	0.302000	0.000000	0.000000	-0.000000
0.453000	-25.805842	497.422607	-8.702104	-0.127597	0.000000	-0.251512	-0.114091	2.199172	-0.038473	0.000000	0.000000	-0.000000	-0.200000	0.000000	0.302000	0.000000	0.000000	-0.000000
0.454000	-25.360413	501.971588	-7.994350	-0.128477	0.000000	-0.250394	-0.112504	2.226854	-0.035465	0.000000	0.000000	-0.000000	-0.200000	0.000000	0.302000	0.000000	0.000000	-0.000000
0.455000	-24.647726	501.971588	-9.763735	-0.128257	0.000000	-0.249438	-0.091439	1.862231	-0.036222	0.000000	0.000000	-0.000000	-0.200000	0.000000	0.302000	0.000000	0.000000	-0.000000
0.456000	-26.696700	506.870514	-9.144450	-0.127795	0.000000	-0.249690	-0.109237	2.074011	-0.037417	0.000000	0.000000	-0.000000	-0.200000	0.000000	0.302000	0.000000	0.000000	-0.000000
0.457000	-25.984013	507.570343	-8.348227	-0.128835	0.000000	-0.249668	-0.108713	2.123586	-0.034928	0.000000	0.000000	-0.000000	-0.200000	0.000000	0.302000	0.000000	0.000000	-0.000000
0.458000	-26.162184	504.770966	-8.259757	-0.127280	0.000000	-0.248036	-0.114339	2.206051	-0.036098	0.000000	0.000000	-0.000000	-0.200000	0.000000	0.302000	0.000000	0.000000	-0.000000
0.459000	-25.805842	510.719666	-8.436696	-0.128623	0.000000	-0.249635	-0.116865	2.312855	-0.038207	0.000000	0.000000	-0.000000	-0.200000	0.000000	0.302000	0.000000	0.000000	-0.000000
0.460000	-25.538584	506.170654	-8.082819	-0.128710	0.000000	-0.248082	-0.110843	2.196898	-0.035081	0.000000	0.000000	-0.000000	-0.200000	0.000000	0.302000	0.000000	0.000000	-0.000000
0.461000	-24.024125	510.019806	-7.375065	-0.128677	0.000000	-0.248296	-0.111581	2.368817	-0.034254	0.000000	0.000000	-0.000000	-0.200000	0.000000	0.302000	0.000000	0.000000	-0.000000
